<svg width="54" height="54" viewBox="0 0 97.072 97.072" xmlns="http://www.w3.org/2000/svg"><path d="M24.854 97.295C18.822 82.91 27.963 67.383 39.583 59.69l1.793-.975-1.064-.987c-7.762-9.335-5.264-21.66 5.36-27.145-1.95-3.212-2.578-6.472-1.858-10.207 1.517-5.523 6.179-7.54 11.202-7.983 5.156.21 9.165 2.873 10.952 7.983 1.138 3.742-.25 6.962-1.859 10.207 11.78 5.537 11.776 17.346 5.36 27.145l-1.063.987c12.279 6.74 23.218 24.136 16.462 38.59-.631.251-59.418.24-60.014-.01z" style="fill:#000;fill-opacity:1;stroke:#fff;stroke-width:4;stroke-miterlimit:4;stroke-dasharray:none;stroke-opacity:1" transform="translate(-6.403 -6.403)"/></svg>
