<svg width="54" height="54" viewBox="0 0 97.1 97.1" xmlns="http://www.w3.org/2000/svg"><g style="stroke-width:19.4564;stroke-miterlimit:4;stroke-dasharray:none"><path d="M155.2 472.8c-8-4-9.3-27.9-2.4-48 5.8-17.2 12.6-26.3 38.4-51.8 23.3-23 29.5-30.5 36.8-44.7 8.6-17 12-30.4 13-51 .2-7.3.3-13.3 0-13.3s-5.2 2.9-11 6.4a527.5 527.5 0 0 1-28.4 15.5c-38 19.3-43.9 24.9-60.8 57.7-3.2 6-7.7 13.6-10.2 16.8-7.9 10-20.6 17.6-29.4 17.6-3.8 0-10.8-2.6-14.5-5.4-1.7-1.3-4-4.2-5-6.4-1.5-3.6-2.1-4-6.4-4.7a54 54 0 0 1-46.8-57.4c1.5-18.1 9.7-36.3 30.2-67 14-21 19.7-31.2 23.7-42.2 2-5.7 2.2-8.3 2.3-24.9v-18.5l3.2-6.8c2.7-5.7 5.6-9.1 17-20.5 7.6-7.5 15.2-15.6 16.7-18l3-4.3-2.2-27.7c-3-38.2-3-38 3.1-40.7 4.3-1.8 4-1.8 36 17.4A679.4 679.4 0 0 0 189.1 67c.4 0 8.3-8 17.6-18 13.9-14.9 17.3-18 20.2-18.6 6.1-1.1 7.6 1 20 28.2l11.4 25 6.2-.8c9-1.3 30.6-.2 41.9 2.2a156.8 156.8 0 0 1 57.2 24.8c11 7.7 28.6 25.6 36.8 37.2 17.7 25 30.5 53.1 42.3 92.4a796.2 796.2 0 0 1 32.9 209.3c.1 19.8 0 20.3-2.2 22.5l-2.2 2.3-156.8.3c-123.6.1-157.2 0-159.2-1z" transform="matrix(.20559 0 0 .20559 -3.3 -3.3)" style="fill:#000;stroke-width:19.4564;stroke-miterlimit:4;stroke-dasharray:none"/><path d="M155.8 67.9c-8.9-5.4-16.2-9.6-16.4-9.4-.1.1.3 7.4 1 16.2l1.1 16 15.2-6.6 15.2-6.6zM458.8 455.5c3-3 3-3-.2-42.5-5.8-73.7-23.7-160.4-43.6-210.5a269.2 269.2 0 0 0-24.6-46.5 143.7 143.7 0 0 0-65.8-51.3 116 116 0 0 0-44.4-7 138 138 0 0 0-24 1.5c-4 .9-8 1.4-8.6 1.1-.6-.2-4.7-8.1-9-17.6l-10.2-22.6-2.5-5.4-15.6 16L194.7 87l-27.2 11.6-27.1 11.7-6.6 8.8c-3.6 4.8-11 13-16.6 18-14.8 13.7-14.5 13-14.6 34 0 15-.3 18.6-2.3 25-3.8 12.7-12.2 28.6-26.5 50-15.7 23.5-23.9 39-26.2 50-2 9.4-1.4 21 1.4 27.1a36.8 36.8 0 0 0 28.5 20.6l6.5.6 6.7-8.9c3.6-4.9 7.6-9.4 8.8-10 4.9-2.8 10-1 12.2 4 1.7 4.1.9 6.1-7.6 17.4a39 39 0 0 0-6.7 11c.6 3 6.8 2.7 11.4-.6 6.5-4.7 10.8-10.7 19.5-27.2 4.4-8.5 10-18.2 12.4-21.6 9.2-12.8 23-22.9 51.9-37.5 28.3-14.4 53.4-30.4 60.7-38.8a47.1 47.1 0 0 0 11.6-36c-.6-11 .5-14.2 5.4-16 2.5-.8 3.8-.7 6.5.5 4.1 2 5.4 5.4 6.1 16.5 1 16.8-6.4 36.6-18.5 49l-6.7 6.7.8 6.3c1.2 9.5 0 31.1-2.3 41.4-4.5 20.3-13 39.6-24.2 54.9a391.6 391.6 0 0 1-27.8 29.6c-21.5 21.3-27.7 28.8-32.6 39.5a68.5 68.5 0 0 0-5.4 25.3v6.2h141.4c93.3 0 141.7.4 142.1 1 1.2 2 6.5 1 9.1-1.5z" transform="matrix(.20559 0 0 .20559 -3.3 -3.3)" style="fill:#fff;stroke-width:19.4564;stroke-miterlimit:4;stroke-dasharray:none"/><path d="M115.3 190.9c4.5-8.6 17.5-29.5 20.2-32.6 5.4-6.1 13.7-8.7 20.1-6.3 1.5.5 2.6 1.6 2.6 2.3 0 3-8.1 14.8-15 21.7a53.7 53.7 0 0 1-16 11.7c-4.7 2.3-9.5 4.5-10.8 4.9-2.2.6-2.3.5-1.1-1.7zM53.4 313.4c.4-8 1-11.2 3-15.7 2.8-6 7.3-9.7 11.6-9.7 5.6 0 11.2 5.6 11.2 11.3 0 4.3-4.3 9-15.4 16.6L53 323.4z" transform="matrix(.20559 0 0 .20559 -3.3 -3.3)" style="fill:#000;stroke-width:19.4564;stroke-miterlimit:4;stroke-dasharray:none"/></g></svg>
