<svg width="54" height="54" viewBox="0 0 97.1 97.1" xmlns="http://www.w3.org/2000/svg"><path d="M57.4 455a171.6 171.6 0 0 1-18-19.4c-1-4.2 1.2-7.7 9.4-14.3 15.9-12.8 34-21.9 53.8-27 17.3-4.5 25.9-5.2 55-4.5 34.3.9 48.7-1 59.9-7.8l3.9-2.4-8-1.7a211 211 0 0 1-44.4-16c-18-9-17.3-6.1-8.8-39.8 3.7-15 6.8-27.7 6.8-28.3a20 20 0 0 0-5.5-5 86.7 86.7 0 0 1-31.6-47.6 65.2 65.2 0 0 1-2.2-20.9c0-15 2.2-23.9 8.9-37.6 10.5-21.7 24.7-35.7 64-63.4a798.7 798.7 0 0 0 32.2-23.7c1.4-1 .9-1.9-3.5-6a33.5 33.5 0 1 1 53-38.5 32 32 0 0 1-7.4 38.5c-4.4 4.1-5 5-3.6 6 7.8 6.1 18.9 14.2 32.3 23.7 39.3 27.7 53.4 41.7 64 63.4a75.8 75.8 0 0 1 8.9 37.6c0 10-.4 14.2-2.2 20.9a86.7 86.7 0 0 1-31.6 47.7 20 20 0 0 0-5.6 5c0 .5 3.1 13.2 6.9 28.2 8.5 33.7 9.1 30.9-8.9 39.9-13 6.5-31 13-44.4 15.9l-8 1.7 4 2.4c11.2 6.8 25.6 8.7 59.9 7.8 29-.7 37.7 0 55 4.5 20 5.1 37.6 14 54 27.2 6.7 5.5 8.5 7.5 9 10.2.4 1.9.2 4.2-.4 5.3-.5 1-8.6 9.4-17.9 18.6-11.8 11.7-17.5 16.7-19.1 16.7-2.9 0-4.7-1-12.3-6.8-8-6-20.1-12.3-29.8-15.5-11-3.7-25.5-5.5-54-6.6-35.8-1.4-51.5-4.6-69.7-14l-9.3-4.8-9.3 4.8c-18.2 9.4-34 12.6-69.7 14-28.6 1.1-43 2.9-54 6.6-9.7 3.2-22 9.6-29.8 15.5-7.7 5.8-9.5 6.8-12.3 6.8-1.6 0-7.5-5.1-19.6-17.2z" transform="translate(-3.7 -3.7) scale(.20732)" style="fill:#fff"/><path d="M191.8 274.9a196.7 196.7 0 0 1 112-2.5c6.2 1.6 13.7 3.9 16.8 5l5.5 2 4.8-3.5a68.7 68.7 0 0 0 21.2-85.1c-9.4-19.4-23.8-33-66.6-63-7.1-5-17.5-12.7-23.2-17.2l-10.2-8.2-10.3 8.2c-5.6 4.5-16 12.3-23.1 17.2-42.8 30-57.3 43.6-66.7 63-12.1 25-7.9 54.9 10.7 75.6 5.6 6.1 14.6 13 16.4 12.5l12.7-4zM184.8 328.4c9.4-3.9 26.3-8.6 38.3-10.8 13.2-2.4 44.8-2.4 58 0 12.4 2.3 26.4 6.2 37.3 10.5 4.9 1.8 9 3.2 9.3 3 .2-.3-1.5-8.3-3.8-17.7-5-20-3.5-18.3-20.1-23-18-5-30-6.5-51.7-6.5-21.7 0-33.8 1.5-51.7 6.5-16.6 4.7-15.2 3.2-19.7 21.6l-4.4 17.6c-.6 2.3 0 2.2 8.5-1.2zM285.7 360.9c12-2.5 26.7-7.2 33.3-10.6l3.5-1.7-4.8-2.1a204 204 0 0 0-36.1-10.8 232 232 0 0 0-59 0 204 204 0 0 0-36.2 10.8l-4.7 2 3.4 1.8c9.9 5 31.6 11 47.6 13a216 216 0 0 0 53-2.4zM84.2 447.7c8-5.4 24.2-13 34-15.8 13.2-3.8 26.8-5.4 54.9-6.5 14-.6 28.4-1.5 32-2.1A97.7 97.7 0 0 0 245 408c5.6-3.8 8.6-3.8 14.2 0a97.7 97.7 0 0 0 39.9 15.3c3.6.6 18 1.5 32 2 28 1.2 41.6 2.8 54.8 6.6a150 150 0 0 1 34.1 15.8l5.5 3.7 8.9-8.9 8.9-9-8.5-5.5c-13.4-9-26.8-14.6-43.2-18.3-6.9-1.5-13.4-1.8-45.5-1.9-37.3-.1-37.6-.1-47.3-2.8-5.5-1.4-12.4-3.7-15.4-5.1-6.4-3-16.5-10-20.8-14.5-2.7-3-3.3-3-10.5-3-7.3 0-7.8 0-10.6 3a85.1 85.1 0 0 1-20.7 14.5c-3 1.4-10 3.7-15.4 5.1-9.8 2.7-10 2.7-47.3 2.8-32.1.1-38.7.4-45.5 1.9a124.6 124.6 0 0 0-43.2 18.1l-8.6 5.7 8.9 8.9c4.8 5 9 9 9 9l5.5-3.7zM260.2 79c10.6-7.1 10.6-20.2 0-27.4-9.9-6.6-24.1 1.5-24.1 13.7s14.2 20.4 24 13.8z" transform="translate(-3.7 -3.7) scale(.20732)" style="fill:#000"/><path d="M247 234c-3.3-2.4-4-5.5-4-18v-12.5l-13.5-.3c-13.5-.4-13.6-.4-16-3.2-3-3.6-3-7.8 0-11.4 2.4-2.8 2.5-2.8 16-3.1l13.4-.3.4-13.5c.3-13.4.3-13.6 3-16 3.7-3 7.9-3 11.5 0 2.8 2.4 2.8 2.6 3.1 16l.3 13.5 13.5.3c13.4.3 13.6.3 16 3.1 3 3.6 3 7.8 0 11.4-2.4 2.8-2.6 2.8-16 3.2l-13.6.3V216c0 12.5-.7 15.6-4 18-2 1.6-8 1.6-10.1 0z" transform="translate(-3.7 -3.7) scale(.20732)" style="fill:#fff"/></svg>
