<svg width="54" height="54" viewBox="0 0 97.1 97.1" xmlns="http://www.w3.org/2000/svg"><path d="M186 482.9c-29.2-1.5-57-8.5-78.3-19.6-10.5-5.4-13.7-8.4-13.7-12.5 0-1.4 4.3-12.3 9.5-24.3l9.5-21.8-9-20.5-8.9-20.4L77 341.4a4921 4921 0 0 1-19.3-23.6c-.5-.8-5.7-39.4-11.5-85.8l-10.6-84.5-6.6-2.2c-8.1-2.8-13.2-6.5-17-12.6a32.9 32.9 0 0 1-2-33.7A31.4 31.4 0 0 1 40 81.2c13.9 0 24.3 6.2 30 17.8 6.7 13.5 4.7 25.7-6.4 40.1-.6.8 9.3 22 28 60.5l28.9 59.4 4.2-73 4.2-76.1c0-2.8-.5-3.6-3.6-5.2a35 35 0 0 1-15.5-15.9c-8.4-17-1-36.4 17.2-45a33 33 0 0 1 43.2 16.6c2.8 5.7 3.3 7.7 3.3 14.2 0 6.5-.5 8.5-3.3 14.2-2 4-5 8.1-7.3 10.2l-4 3.4 24.8 72c13.6 39.7 25 72.2 25.3 72.2.3 0 6.9-36.3 14.6-80.7l14-80.8-4.3-2.8a33.5 33.5 0 1 1 48.9-42c2.8 5.8 3.3 7.8 3.3 14.3 0 11.5-5.3 21.3-14.8 27.7l-4.3 2.8 14 80.8c7.7 44.4 14.3 80.7 14.6 80.7.3 0 11.7-32.5 25.3-72.1l24.9-72-4-3.5c-2.5-2-5.5-6.2-7.4-10.2-8.4-17-1-36.4 17.2-45a31.8 31.8 0 0 1 26 0c8.2 3.8 13.4 9 17.2 16.6 2.8 5.7 3.3 7.7 3.3 14.2 0 6.5-.5 8.5-3.3 14.2a35 35 0 0 1-15.4 15.9c-3.2 1.6-3.8 2.4-3.7 5.2l4.2 76.1 4.2 73 28.9-59.4c18.7-38.5 28.6-59.7 28-60.5-11.1-14.4-13-26.6-6.4-40a31.4 31.4 0 0 1 30-17.9c13.9 0 24.3 6.2 30 17.8 5.6 11.4 5 23-1.9 33.7-3.8 6.1-8.9 9.8-17 12.6l-6.6 2.2L458 232c-5.8 46.4-11 85-11.5 85.8L427 341.4l-18.2 22.4-9 20.4-8.9 20.5 9.5 21.8c5.2 12 9.5 23 9.5 24.3 0 4.1-3.2 7-13.7 12.5a186.6 186.6 0 0 1-59.2 18c-8.6 1.2-23.6 1.5-78.1 1.7-37.1.1-70 0-73-.1z" transform="matrix(.18476 0 0 .18476 2 2)" style="fill:#fff"/><path d="M260 68.3c5.3-3.5 8-8.2 8-13.7 0-12.2-14.3-20.3-24-13.7-5.3 3.5-8 8.2-8 13.7 0 12.2 14.3 20.3 24 13.7zM372 88.3c5.3-3.5 8-8.2 8-13.7s-2.7-10.2-8-13.7c-9.7-6.6-24 1.5-24 13.7s14.3 20.3 24 13.7zM148 88.3c10.7-7.1 10.7-20.3 0-27.4-9.7-6.6-24 1.5-24 13.7s14.3 20.3 24 13.7zM472 127.8c5.2-2.6 8-7.4 8-13.7 0-9.2-6.5-15.5-16-15.5s-16 6.3-16 15.5 6.5 15.5 16 15.5c2.5 0 6-.8 8-1.8zM48 127.8c10.8-5.4 10.8-22 0-27.5a19.8 19.8 0 0 0-16 0c-10.8 5.5-10.8 22.1 0 27.5 2 1 5.5 1.8 8 1.8s6-.8 8-1.8zM231 268c3.5-2 8.5-5.3 11-7.3 9-7.5 11.3-7.6 19.1-.8a76.9 76.9 0 0 0 19.3 11.6c.5-.6-27.8-162.9-28.4-162.9-.3 0-6.8 36.1-14.4 80.2-7.6 44.2-14.1 80.9-14.4 81.5-.7 2 .6 1.6 7.7-2.3zM366.5 274.8l-4.5-78.2-4.2-74.1c-.2-1.6-11.4 29.5-26.7 74-14.5 42.1-26.6 77.2-27 78-.8 2.4 13 .5 22.9-3 12.5-4.6 14.3-4.7 18.8-1.3 3.7 2.9 19 11.3 20.5 11.4.5 0 .6-3 .2-6.8zM145.3 278c4-2 9.4-5.2 12-7.1 5.6-4.1 6.9-4 19.7.6 9.8 3.5 23.7 5.4 22.8 3l-26.9-78a1235.4 1235.4 0 0 0-26.7-74l-4.2 74.1a8270 8270 0 0 1-4.5 78.2c-.4 3.8-.4 6.8 0 6.8.3 0 3.8-1.6 7.8-3.6zM440 232.1c4.3-35.1 7.8-64 7.6-64.2-.2-.2-55.9 113.7-57.4 117.6-.5 1.2 1 1.3 9.9.6 17.7-1.4 16.7-1.6 24.5 4.7 3.8 3.1 7 5.5 7.1 5.4l8.2-64.1zM86.6 285.8c2-1 4-1.1 9.4-.3 9.7 1.5 18.4 1.4 17.7-.2-1.5-3.7-57.1-117.6-57.3-117.4-.2.2 3.2 28.9 7.6 63.7l8 64.3c0 .5 2.7-1.3 6-4a81 81 0 0 1 8.6-6.1zM113 346c90.2-31 187.8-31 278 0 4 1.5 7.7 2.3 8.1 1.9 2.4-2.6 26.9-32.9 26.8-33.3 0-.3-3.2-3-7.1-6l-7.1-5.7-5.6 1c-17.4 2.8-42.9-2.8-61.4-13.5l-6.8-4-7.7 2.6a82 82 0 0 1-73-10.1l-5.2-3.5-5.2 3.5a87.6 87.6 0 0 1-42.3 14.4c-10.4.7-19.4-.6-30.7-4.3l-7.7-2.5-6.8 3.9c-18.5 10.7-44 16.3-61.4 13.5l-5.6-1-7 5.6c-4 3-7.1 6-7 6.3.2.6 27 33.8 27.2 33.8l7.6-2.6z" transform="matrix(.18476 0 0 .18476 2 2)" style="fill:#000"/><path d="M151.2 384.8a324.3 324.3 0 0 1 201.6 0c8.4 2.7 17.3 5.8 19.7 6.8 3.1 1.3 4.5 1.5 4.8.7l6.5-14.8 6-13.6-3.7-1.2c-67-21.4-125.8-27-191.6-18a428.1 428.1 0 0 0-76.6 18l-3.6 1.2 6 13.6a4810 4810 0 0 1 6.4 14.8c.3.8 1.7.6 4.8-.7 2.4-1 11.3-4.1 19.7-6.8z" transform="matrix(.18476 0 0 .18476 2 2)" style="fill:#000"/><path d="M151.5 426c19.6-4.7 40.9-8.5 60.5-10.6 16.3-1.7 63.7-1.7 80 0a478.6 478.6 0 0 1 93 19.7l-4.9-11.7c-5.8-13.4-4.8-12.8-30.3-21.3A335.1 335.1 0 0 0 291 389a417.3 417.3 0 0 0-78 0c-21.5 3-41.4 7.5-58.8 13.2-25.5 8.5-24.5 7.9-30.3 21.3L119 435a428.4 428.4 0 0 1 32.5-9z" transform="matrix(.18476 0 0 .18476 2 2)" style="fill:#000"/><path d="M337 463.3c13.9-2 22.5-4 33.9-8l9.3-3.1-6.8-2.3c-11.2-3.8-37.8-10-53.9-12.7-24.9-4-38.4-5-67.5-5-29 0-42.6 1-67.5 5-16 2.6-42.7 8.9-53.9 12.7l-6.8 2.3 9.3 3.2c15.2 5.2 33.5 8.5 52.9 9.5 3 .2 35.9.2 73 0 54.3 0 69.5-.4 78-1.6z" transform="matrix(.18476 0 0 .18476 2 2)" style="fill:#000"/></svg>
