<svg width="54" height="54" viewBox="0 0 97.1 97.1" xmlns="http://www.w3.org/2000/svg"><g style="stroke-width:19.2963;stroke-miterlimit:4;stroke-dasharray:none"><path d="M203.3 471c-37.8-2.4-72.4-11-98.5-24.5-7.4-3.8-9.7-5.5-10.4-7.7-.7-2-.3-8.7 1.5-23l2.4-20.2L96 369l-2.3-26.5-6-10.5a391.1 391.1 0 0 0-30.1-44.5c-17-22-22.6-31.4-27.3-45.5a52.5 52.5 0 0 1-2.8-20.5c0-10 .3-13.3 2.2-19.5 7.2-23 22.8-40 43.6-47.6 19.5-7 37.9-7 60.8.2 22.2 7 50.1 23.9 70.4 42.7l6 5.5-2.2-8.8a98.1 98.1 0 0 1-2.8-44.8c3-14.3 9.8-27 18.6-34.7 4.2-3.6 17-10.5 19.5-10.5 1 0 1.3-4 1.3-17.5V69h-33V54h33V32h15v22h32v15h-32v34.5l7.3 3.3c16.3 7.3 26.8 21.7 31.1 42.4a98.1 98.1 0 0 1-2.7 44.8l-2.3 8.8 6-5.5a220.5 220.5 0 0 1 52.1-35.4c24-11.3 46.5-15.2 65.2-11.3 17.2 3.5 28 9.1 39.3 20.4a71 71 0 0 1 19.6 63c-3.3 16.3-10 28.7-29.2 53.5A394.3 394.3 0 0 0 416 332l-6 10.5-2.4 26.5-2.4 26.5 2.5 20.2c1.7 14.3 2.1 21 1.5 23-.8 2.2-3.1 3.9-10.4 7.7-27 14-60.2 22-101 24.6-19 1.1-75.4 1-94.6-.1z" transform="matrix(.2073 0 0 .2073 -3.7 -3.7)" style="fill:#000;stroke-width:19.2963;stroke-miterlimit:4;stroke-dasharray:none"/><path d="m253 266.3 8.8-25.2c17-48.8 18.5-54.6 19.6-71.6 1.1-17.2-2.2-29.1-10.8-39a27 27 0 0 0-18.8-9.4 27 27 0 0 0-18.8 9.5c-8.6 9.8-12 21.7-10.8 39 1 16.9 2.7 22.7 19.6 71.5l8.7 25.2c.3 1 .9 1.8 1.3 1.8s1-.8 1.3-1.8zM401.7 322a442.7 442.7 0 0 1 32.2-47.4c18.7-24.3 23.6-34.2 24.6-49.5 1-16.9-4-30.5-15.4-42-12-11.8-25.9-16.7-45.3-15.7-18.1 1-34.2 6.5-54.9 19-33.4 20-63.6 55-71.8 83-2 6.9-6.4 27-8.6 39.3l-.6 3.1 13.2.7c38.4 2 87.7 9 113.2 16 8.5 2.4 8.6 2.3 13.4-6.5zM125.3 326.2a593 593 0 0 1 95.5-13.2c11.3-.6 20.6-1.2 20.7-1.3a524 524 0 0 0-9-42.2c-8.3-28.1-38.4-63-71.8-83.1-20.7-12.5-36.8-18-54.9-19-19.4-1-33.3 3.9-45.2 15.8A51.2 51.2 0 0 0 45 225c1 15.5 6.2 25.8 25.4 50.5 11.7 15 25 34.8 31.4 46.4 5.1 9.5 2.5 9 23.4 4.2zM156.7 372.6a442 442 0 0 1 218.8 7.3l13 3.8 1.2-15c.7-8.3 1.4-16.5 1.7-18.2l.6-3-14.4-3.3a574.3 574.3 0 0 0-251.6 0l-14.4 3.2.6 3.1c.3 1.7 1 9.9 1.7 18.1l1.2 15 13-3.7c7.1-2 20-5.4 28.6-7.3z" transform="matrix(.2073 0 0 .2073 -3.7 -3.7)" style="fill:#fff;stroke-width:19.2963;stroke-miterlimit:4;stroke-dasharray:none"/><path d="M153.3 409a340.6 340.6 0 0 1 98.5-12.3c21.2 0 32.2.4 43 1.7a431.3 431.3 0 0 1 83.3 19c9.9 3.4 12.6 4 12.3 2.8a87 87 0 0 1-1.2-8.8c-.3-4-1.2-8-1.8-8.8-1.4-1.8-23.6-8.3-42.3-12.4a440.5 440.5 0 0 0-214.1 7 67.5 67.5 0 0 0-14.8 5.4c-.6.9-1.4 4.8-1.8 8.8-.4 4-.9 7.9-1.2 8.8-.3 1.2 2.4.6 12.3-2.8 7-2.5 19.6-6.2 27.8-8.3z" transform="matrix(.2073 0 0 .2073 -3.7 -3.7)" style="fill:#fff;stroke-width:19.2963;stroke-miterlimit:4;stroke-dasharray:none"/><path d="M297.8 453a333 333 0 0 0 53.5-7.3c12.5-3 28-8.6 26.8-9.6a342.2 342.2 0 0 0-126.3-21.4A342.2 342.2 0 0 0 125.5 436c-1.1 1 14.3 6.5 26.8 9.6 13 3.2 34.8 6.3 51 7.3a1247 1247 0 0 0 94.5 0z" transform="matrix(.2073 0 0 .2073 -3.7 -3.7)" style="fill:#fff;stroke-width:19.2963;stroke-miterlimit:4;stroke-dasharray:none"/></g></svg>
