<svg width="54" height="54" viewBox="0 0 97.1 97.1" xmlns="http://www.w3.org/2000/svg"><g style="stroke-width:17.5407;stroke-miterlimit:4;stroke-dasharray:none"><path d="M86 448.5c-4.5-2.4-5-5.4-4.6-27.9l.3-20.7 2.8-2.4c2.5-2.2 3.7-2.5 12.3-2.5h9.4v-17.7c0-15.8.2-18 2-20.8 1-1.6 10.4-12 20.9-23l19-20v-142l-23.5-17.9c-12.9-9.8-24-18.7-24.4-19.6-.6-1-1-16.5-1-37 0-38.4.2-39.5 5.8-41.9 2-.8 11.5-1 33.5-.8 38 .3 35-1.1 35.5 17.3l.4 12.4h33.8V73.5c0-12.2 1.3-16.5 5.7-18.3 2.1-1 12.7-1.2 40-1 45.6.4 41.6-1.2 42.1 17.4l.4 12.4h33.8V73c0-12.4 1.1-16 5.8-17.9 2-.8 11.5-1 33.5-.8 30.4.2 30.7.3 33 2.5 2.2 2.3 2.2 2.3 2.5 38.9.2 30.2 0 37-1.1 38.7-.8 1.2-11.9 10-24.6 19.6l-23 17.5v71l-.1 71 20.1 21.5c11 11.8 20.5 22.6 21 23.8.5 1.3.9 10 .9 19.2V395l10 .3c15 .5 14.5-.6 14.5 27.3 0 22 0 22.5-2.3 24.8l-2.3 2.2-164.7.3c-141 .1-165 0-167.3-1.3z" transform="translate(-9 -9) scale(.22804)" style="fill:#000;stroke-width:17.5407;stroke-miterlimit:4;stroke-dasharray:none"/><path d="M387.2 96.5V72h-38.8l-.4 12.5c-.5 18.3 2 17-33 17.3-20 .2-29 0-31-.9-4.7-1.9-5.8-5.4-5.8-17.8V72h-52V84c0 11.2-.2 12.1-2.4 14.7l-2.4 2.8-28.3.3c-20.1.2-29.1 0-31.1-.9-4.7-1.9-5.8-5.4-5.8-17.8V72h-39V121h270zM357.5 148.8l12.1-9.3-58.7-.2c-32.3-.2-85.1-.2-117.4 0l-58.6.2 11.9 9.2 11.9 9.2H252l93.3.1zM338.2 242v-66h-172v132h172zM366.5 350.7c-1-1.2-6.5-7.3-12.3-13.5L343.7 326H160.5l-12.7 13.5L135 353h233.3zM380.2 383v-12h-256v24h256zM405.2 422.5V413h-306v19h306Z" transform="translate(-9 -9) scale(.22804)" style="fill:#fff;stroke-width:17.5407;stroke-miterlimit:4;stroke-dasharray:none"/></g></svg>
